<?xml version="1.0" encoding="UTF-8" standalone="no"?>
<!-- Created with Inkscape (http://www.inkscape.org/) -->

<svg
   xmlns:dc="http://purl.org/dc/elements/1.1/"
   xmlns:cc="http://creativecommons.org/ns#"
   xmlns:rdf="http://www.w3.org/1999/02/22-rdf-syntax-ns#"
   xmlns:svg="http://www.w3.org/2000/svg"
   xmlns="http://www.w3.org/2000/svg"
   xmlns:sodipodi="http://sodipodi.sourceforge.net/DTD/sodipodi-0.dtd"
   xmlns:inkscape="http://www.inkscape.org/namespaces/inkscape"
   width="46.891193mm"
   height="3.861263mm"
   viewBox="0 0 166.1499 13.681641"
   id="svg4209"
   version="1.1"
   inkscape:version="0.91 r13725"
   sodipodi:docname="team_mail.svg">
  <defs
     id="defs4211" />
  <sodipodi:namedview
     id="base"
     pagecolor="#ffffff"
     bordercolor="#666666"
     borderopacity="1.0"
     inkscape:pageopacity="0.0"
     inkscape:pageshadow="2"
     inkscape:zoom="2.8"
     inkscape:cx="16.988895"
     inkscape:cy="-123.88714"
     inkscape:document-units="px"
     inkscape:current-layer="text4757"
     showgrid="false"
     fit-margin-top="0"
     fit-margin-left="0"
     fit-margin-right="0"
     fit-margin-bottom="0"
     inkscape:window-width="1920"
     inkscape:window-height="1015"
     inkscape:window-x="0"
     inkscape:window-y="38"
     inkscape:window-maximized="1" />
  <metadata
     id="metadata4214">
    <rdf:RDF>
      <cc:Work
         rdf:about="">
        <dc:format>image/svg+xml</dc:format>
        <dc:type
           rdf:resource="http://purl.org/dc/dcmitype/StillImage" />
        <dc:title />
      </cc:Work>
    </rdf:RDF>
  </metadata>
  <g
     inkscape:label="Layer 1"
     inkscape:groupmode="layer"
     id="layer1"
     transform="translate(-218.58084,-43.943542)">
    <g
       style="font-style:normal;font-weight:normal;font-size:15px;line-height:125%;font-family:sans-serif;text-align:center;letter-spacing:0px;word-spacing:0px;text-anchor:middle;fill:#000000;fill-opacity:1;stroke:none;stroke-width:1px;stroke-linecap:butt;stroke-linejoin:miter;stroke-opacity:1"
       id="text4757">
      <path
         d="m 220.92459,43.972839 0,2.329102 2.77588,0 0,1.047363 -2.77588,0 0,4.453125 q 0,1.003418 0.271,1.289063 0.27832,0.285644 1.1206,0.285644 l 1.38428,0 0,1.12793 -1.38428,0 q -1.56006,0 -2.15332,-0.578613 -0.59326,-0.585938 -0.59326,-2.124024 l 0,-4.453125 -0.98877,0 0,-1.047363 0.98877,0 0,-2.329102 1.35498,0 z"
         id="path4762"
         inkscape:connector-curvature="0"
         style="fill:#ffffff" />
      <path
         d="m 232.49686,50.066589 0,0.65918 -6.19629,0 q 0.0879,1.391602 0.83496,2.124023 0.75439,0.725098 2.09473,0.725098 0.77636,0 1.50146,-0.19043 0.73242,-0.190429 1.4502,-0.571289 l 0,1.274414 q -0.7251,0.307618 -1.48682,0.46875 -0.76172,0.161133 -1.54541,0.161133 -1.96289,0 -3.11279,-1.142578 -1.14258,-1.142578 -1.14258,-3.09082 0,-2.01416 1.08398,-3.19336 1.09131,-1.186523 2.93701,-1.186523 1.65528,0 2.61475,1.069336 0.9668,1.062012 0.9668,2.893066 z m -1.34766,-0.395507 q -0.0147,-1.105957 -0.62256,-1.765137 -0.60058,-0.65918 -1.59668,-0.65918 -1.12793,0 -1.80908,0.637207 -0.67383,0.637207 -0.77637,1.794434 l 4.80469,-0.0073 z"
         id="path4764"
         inkscape:connector-curvature="0"
         style="fill:#ffffff" />
      <path
         d="m 238.4368,50.381531 q -1.6333,0 -2.26319,0.373535 -0.62988,0.373535 -0.62988,1.274414 0,0.717773 0.46875,1.142578 0.47608,0.417481 1.28906,0.417481 1.12061,0 1.79444,-0.791016 0.68115,-0.79834 0.68115,-2.116699 l 0,-0.300293 -1.34033,0 z m 2.68799,-0.556641 0,4.680176 -1.34766,0 0,-1.245117 q -0.46143,0.74707 -1.1499,1.105957 -0.68848,0.351562 -1.68457,0.351562 -1.25977,0 -2.00684,-0.703125 -0.73974,-0.710449 -0.73974,-1.896972 0,-1.384278 0.92285,-2.087403 0.93017,-0.703125 2.76855,-0.703125 l 1.88965,0 0,-0.131836 q 0,-0.930175 -0.61523,-1.435547 -0.60791,-0.512695 -1.71387,-0.512695 -0.70313,0 -1.36963,0.168457 -0.6665,0.168457 -1.28174,0.505371 l 0,-1.245117 q 0.73975,-0.285644 1.43555,-0.424805 0.6958,-0.146484 1.35498,-0.146484 1.77978,0 2.65869,0.922852 0.87891,0.922851 0.87891,2.797851 z"
         id="path4766"
         inkscape:connector-curvature="0"
         style="fill:#ffffff" />
      <path
         d="m 250.29471,47.876648 q 0.50537,-0.908203 1.20849,-1.340332 0.70313,-0.432129 1.65528,-0.432129 1.28174,0 1.97754,0.900879 0.6958,0.893555 0.6958,2.548828 l 0,4.951172 -1.35498,0 0,-4.907227 q 0,-1.179199 -0.41748,-1.750488 -0.41748,-0.571289 -1.27442,-0.571289 -1.04736,0 -1.65527,0.695801 -0.60791,0.695801 -0.60791,1.896972 l 0,4.636231 -1.35498,0 0,-4.907227 q 0,-1.186523 -0.41748,-1.750488 -0.41748,-0.571289 -1.28906,-0.571289 -1.03272,0 -1.64063,0.703125 -0.60791,0.695801 -0.60791,1.889648 l 0,4.636231 -1.35498,0 0,-8.203125 1.35498,0 0,1.274414 q 0.46143,-0.754395 1.10596,-1.113281 0.64453,-0.358887 1.53076,-0.358887 0.89355,0 1.51611,0.454102 0.62989,0.454101 0.93018,1.318359 z"
         id="path4768"
         inkscape:connector-curvature="0"
         style="fill:#ffffff" />
      <path
         d="m 262.69461,50.57196 q 0,1.047364 0.52002,1.64795 0.52002,0.593261 1.42822,0.593261 0.90088,0 1.41358,-0.600586 0.52002,-0.600585 0.52002,-1.640625 0,-1.02539 -0.52735,-1.625976 -0.52734,-0.60791 -1.4209,-0.60791 -0.88623,0 -1.41357,0.600586 -0.52002,0.600586 -0.52002,1.6333 z m 3.9917,2.189942 q -0.43945,0.563965 -1.01074,0.834961 -0.56397,0.263672 -1.31836,0.263672 -1.25977,0 -2.05078,-0.908203 -0.78369,-0.915528 -0.78369,-2.380372 0,-1.464843 0.79101,-2.380371 0.79102,-0.915527 2.04346,-0.915527 0.75439,0 1.32568,0.27832 0.57129,0.270996 1.00342,0.827637 l 0,-0.959473 1.04736,0 0,5.390625 q 1.06934,-0.161132 1.66992,-0.974121 0.60792,-0.820312 0.60792,-2.116699 0,-0.783691 -0.23438,-1.472168 -0.22705,-0.688476 -0.6958,-1.274414 -0.76172,-0.959473 -1.86035,-1.464844 -1.09131,-0.512695 -2.38037,-0.512695 -0.90088,0 -1.72852,0.241699 -0.82764,0.234375 -1.53076,0.703125 -1.1499,0.747071 -1.80176,1.962891 -0.64453,1.208496 -0.64453,2.62207 0,1.164551 0.41748,2.182617 0.42481,1.018067 1.22315,1.794434 0.76904,0.761719 1.77978,1.157226 1.01074,0.402833 2.16064,0.402833 0.94483,0 1.85303,-0.322266 0.91553,-0.314942 1.67725,-0.908203 l 0.65918,0.812988 q -0.91553,0.710449 -1.99951,1.083984 -1.07666,0.38086 -2.18995,0.38086 -1.35498,0 -2.55615,-0.483399 -1.20117,-0.476074 -2.13867,-1.391601 -0.9375,-0.915528 -1.42822,-2.116699 -0.49072,-1.208497 -0.49072,-2.592774 0,-1.333008 0.49804,-2.541504 0.49805,-1.208496 1.4209,-2.124023 0.94482,-0.930176 2.18262,-1.420899 1.23779,-0.498047 2.62207,-0.498047 1.55273,0 2.87842,0.637208 1.333,0.637207 2.23388,1.809082 0.54932,0.717773 0.83496,1.560058 0.29297,0.842285 0.29297,1.743164 0,1.92627 -1.16455,3.039551 -1.16455,1.113281 -3.21533,1.157227 l 0,-1.12793 z"
         id="path4770"
         inkscape:connector-curvature="0"
         style="fill:#ffffff" />
      <path
         d="m 274.83084,53.274597 0,4.350586 -1.35498,0 0,-11.323242 1.35498,0 0,1.245117 q 0.42481,-0.732422 1.06934,-1.083984 0.65185,-0.358887 1.55273,-0.358887 1.49414,0 2.42432,1.186523 0.9375,1.186524 0.9375,3.120118 0,1.933593 -0.9375,3.120117 -0.93018,1.186523 -2.42432,1.186523 -0.90088,0 -1.55273,-0.351562 -0.64453,-0.358887 -1.06934,-1.091309 z m 4.58496,-2.863769 q 0,-1.486817 -0.61523,-2.329102 -0.60791,-0.849609 -1.67725,-0.849609 -1.06933,0 -1.68457,0.849609 -0.60791,0.842285 -0.60791,2.329102 0,1.486816 0.60791,2.336425 0.61524,0.842286 1.68457,0.842286 1.06934,0 1.67725,-0.842286 0.61523,-0.849609 0.61523,-2.336425 z"
         id="path4772"
         inkscape:connector-curvature="0"
         style="fill:#ffffff" />
      <path
         d="m 287.80203,47.561707 q -0.22705,-0.131836 -0.49804,-0.19043 -0.26368,-0.06592 -0.58594,-0.06592 -1.14258,0 -1.75781,0.74707 -0.60791,0.739746 -0.60791,2.131348 l 0,4.321289 -1.35499,0 0,-8.203125 1.35499,0 0,1.274414 q 0.4248,-0.74707 1.10595,-1.105957 0.68115,-0.366211 1.65528,-0.366211 0.13916,0 0.30761,0.02197 0.16846,0.01465 0.37354,0.05127 l 0.007,1.384278 z"
         id="path4774"
         inkscape:connector-curvature="0"
         style="fill:#ffffff" />
      <path
         d="m 292.0867,47.246765 q -1.08398,0 -1.71387,0.84961 -0.62988,0.842285 -0.62988,2.314453 0,1.472168 0.62256,2.321777 0.62988,0.842285 1.72119,0.842285 1.07666,0 1.70654,-0.849609 0.62989,-0.84961 0.62989,-2.314453 0,-1.45752 -0.62989,-2.307129 -0.62988,-0.856934 -1.70654,-0.856934 z m 0,-1.142578 q 1.75781,0 2.76123,1.142578 1.00342,1.142578 1.00342,3.164063 0,2.01416 -1.00342,3.164062 -1.00342,1.142578 -2.76123,1.142578 -1.76514,0 -2.76855,-1.142578 -0.9961,-1.149902 -0.9961,-3.164062 0,-2.021485 0.9961,-3.164063 1.00341,-1.142578 2.76855,-1.142578 z"
         id="path4776"
         inkscape:connector-curvature="0"
         style="fill:#ffffff" />
      <path
         d="m 299.41092,43.972839 0,2.329102 2.77588,0 0,1.047363 -2.77588,0 0,4.453125 q 0,1.003418 0.271,1.289063 0.27832,0.285644 1.1206,0.285644 l 1.38428,0 0,1.12793 -1.38428,0 q -1.56006,0 -2.15332,-0.578613 -0.59326,-0.585938 -0.59326,-2.124024 l 0,-4.453125 -0.98877,0 0,-1.047363 0.98877,0 0,-2.329102 1.35498,0 z"
         id="path4778"
         inkscape:connector-curvature="0"
         style="fill:#ffffff" />
      <path
         d="m 307.14529,47.246765 q -1.08398,0 -1.71386,0.84961 -0.62989,0.842285 -0.62989,2.314453 0,1.472168 0.62256,2.321777 0.62989,0.842285 1.72119,0.842285 1.07666,0 1.70655,-0.849609 0.62988,-0.84961 0.62988,-2.314453 0,-1.45752 -0.62988,-2.307129 -0.62989,-0.856934 -1.70655,-0.856934 z m 0,-1.142578 q 1.75782,0 2.76123,1.142578 1.00342,1.142578 1.00342,3.164063 0,2.01416 -1.00342,3.164062 -1.00341,1.142578 -2.76123,1.142578 -1.76513,0 -2.76855,-1.142578 -0.99609,-1.149902 -0.99609,-3.164062 0,-2.021485 0.99609,-3.164063 1.00342,-1.142578 2.76855,-1.142578 z"
         id="path4780"
         inkscape:connector-curvature="0"
         style="fill:#ffffff" />
      <path
         d="m 319.95535,49.553894 0,4.951172 -1.34765,0 0,-4.907227 q 0,-1.16455 -0.45411,-1.743164 -0.4541,-0.578613 -1.3623,-0.578613 -1.09131,0 -1.72119,0.695801 -0.62988,0.695801 -0.62988,1.896972 l 0,4.636231 -1.35498,0 0,-8.203125 1.35498,0 0,1.274414 q 0.48339,-0.739746 1.13525,-1.105957 0.65918,-0.366211 1.51611,-0.366211 1.41358,0 2.13868,0.878906 0.72509,0.871582 0.72509,2.570801 z"
         id="path4782"
         inkscape:connector-curvature="0"
         style="fill:#ffffff" />
      <path
         d="m 323.991,43.972839 0,2.329102 2.77588,0 0,1.047363 -2.77588,0 0,4.453125 q 0,1.003418 0.27099,1.289063 0.27832,0.285644 1.12061,0.285644 l 1.38428,0 0,1.12793 -1.38428,0 q -1.56006,0 -2.15332,-0.578613 -0.59326,-0.585938 -0.59326,-2.124024 l 0,-4.453125 -0.98877,0 0,-1.047363 0.98877,0 0,-2.329102 1.35498,0 z"
         id="path4784"
         inkscape:connector-curvature="0"
         style="fill:#ffffff" />
      <path
         d="m 331.95975,55.266785 q -0.57129,1.464843 -1.11328,1.911621 -0.542,0.446777 -1.4502,0.446777 l -1.07666,0 0,-1.12793 0.79102,0 q 0.55664,0 0.86425,-0.263671 0.30762,-0.263672 0.68116,-1.245118 l 0.2417,-0.615234 -3.31788,-8.071289 1.42823,0 2.56347,6.416016 2.56348,-6.416016 1.42822,0 -3.60351,8.964844 z"
         id="path4786"
         inkscape:connector-curvature="0"
         style="fill:#ffffff" />
      <path
         d="m 338.72733,53.274597 0,4.350586 -1.35499,0 0,-11.323242 1.35499,0 0,1.245117 q 0.4248,-0.732422 1.06933,-1.083984 0.65186,-0.358887 1.55274,-0.358887 1.49414,0 2.42431,1.186523 0.9375,1.186524 0.9375,3.120118 0,1.933593 -0.9375,3.120117 -0.93017,1.186523 -2.42431,1.186523 -0.90088,0 -1.55274,-0.351562 -0.64453,-0.358887 -1.06933,-1.091309 z m 4.58496,-2.863769 q 0,-1.486817 -0.61524,-2.329102 -0.60791,-0.849609 -1.67724,-0.849609 -1.06934,0 -1.68457,0.849609 -0.60791,0.842285 -0.60791,2.329102 0,1.486816 0.60791,2.336425 0.61523,0.842286 1.68457,0.842286 1.06933,0 1.67724,-0.842286 0.61524,-0.849609 0.61524,-2.336425 z"
         id="path4788"
         inkscape:connector-curvature="0"
         style="fill:#ffffff" />
      <path
         d="m 353.9617,50.066589 0,0.65918 -6.19629,0 q 0.0879,1.391602 0.83496,2.124023 0.7544,0.725098 2.09473,0.725098 0.77637,0 1.50146,-0.19043 0.73243,-0.190429 1.4502,-0.571289 l 0,1.274414 q -0.7251,0.307618 -1.48682,0.46875 -0.76172,0.161133 -1.54541,0.161133 -1.96289,0 -3.11279,-1.142578 -1.14258,-1.142578 -1.14258,-3.09082 0,-2.01416 1.08399,-3.19336 1.0913,-1.186523 2.93701,-1.186523 1.65527,0 2.61474,1.069336 0.9668,1.062012 0.9668,2.893066 z m -1.34766,-0.395507 q -0.0146,-1.105957 -0.62255,-1.765137 -0.60059,-0.65918 -1.59668,-0.65918 -1.12793,0 -1.80909,0.637207 -0.67382,0.637207 -0.77636,1.794434 l 4.80468,-0.0073 z"
         id="path4790"
         inkscape:connector-curvature="0"
         style="fill:#ffffff" />
      <path
         d="m 361.40311,46.54364 0,1.274414 q -0.57129,-0.292969 -1.18653,-0.439453 -0.61523,-0.146484 -1.27441,-0.146484 -1.00342,0 -1.50879,0.307617 -0.49805,0.307617 -0.49805,0.922851 0,0.46875 0.35889,0.739747 0.35889,0.263671 1.44287,0.505371 l 0.46143,0.102539 q 1.43554,0.307617 2.03613,0.871582 0.60791,0.55664 0.60791,1.560058 0,1.142578 -0.9082,1.809082 -0.90088,0.666504 -2.48291,0.666504 -0.65918,0 -1.37696,-0.131836 -0.71045,-0.124511 -1.50146,-0.380859 l 0,-1.391602 q 0.74707,0.388184 1.47217,0.585938 0.72509,0.19043 1.43554,0.19043 0.95215,0 1.46485,-0.322266 0.51269,-0.32959 0.51269,-0.922852 0,-0.549316 -0.37353,-0.842285 -0.36621,-0.292969 -1.61866,-0.563965 l -0.46875,-0.109863 q -1.25244,-0.263672 -1.80908,-0.805664 -0.55664,-0.549316 -0.55664,-1.501465 0,-1.157226 0.82031,-1.787109 0.82032,-0.629883 2.32911,-0.629883 0.74707,0 1.40625,0.109863 0.65918,0.109864 1.21582,0.32959 z"
         id="path4792"
         inkscape:connector-curvature="0"
         style="fill:#ffffff" />
      <path
         d="m 364.18631,52.644714 1.54541,0 0,1.860352 -1.54541,0 0,-1.860352 z"
         id="path4794"
         inkscape:connector-curvature="0"
         style="fill:#ffffff" />
      <path
         d="m 375.78787,50.066589 0,0.65918 -6.19629,0 q 0.0879,1.391602 0.83496,2.124023 0.7544,0.725098 2.09473,0.725098 0.77637,0 1.50147,-0.19043 0.73242,-0.190429 1.45019,-0.571289 l 0,1.274414 q -0.7251,0.307618 -1.48682,0.46875 -0.76171,0.161133 -1.54541,0.161133 -1.96289,0 -3.11279,-1.142578 -1.14258,-1.142578 -1.14258,-3.09082 0,-2.01416 1.08399,-3.19336 1.09131,-1.186523 2.93701,-1.186523 1.65527,0 2.61475,1.069336 0.96679,1.062012 0.96679,2.893066 z m -1.34765,-0.395507 q -0.0147,-1.105957 -0.62256,-1.765137 -0.60059,-0.65918 -1.59668,-0.65918 -1.12793,0 -1.80908,0.637207 -0.67383,0.637207 -0.77637,1.794434 l 4.80469,-0.0073 z"
         id="path4796"
         inkscape:connector-curvature="0"
         style="fill:#ffffff" />
      <path
         d="m 377.86063,51.267761 0,-4.96582 1.34765,0 0,4.914551 q 0,1.16455 0.4541,1.750488 0.45411,0.578613 1.36231,0.578613 1.09131,0 1.72119,-0.695801 0.63721,-0.6958 0.63721,-1.896972 l 0,-4.650879 1.34765,0 0,8.203125 -1.34765,0 0,-1.259766 q -0.49073,0.747071 -1.14258,1.113282 -0.64453,0.358886 -1.50147,0.358886 -1.41357,0 -2.14599,-0.878906 -0.73242,-0.878906 -0.73242,-2.570801 z m 3.39111,-5.163574 0,0 z"
         id="path4798"
         inkscape:connector-curvature="0"
         style="fill:#ffffff" />
    </g>
  </g>
</svg>
